<svg xmlns="http://www.w3.org/2000/svg" width="101" height="103" viewBox="0 0 91 93">
  <path id="Path_3087" data-name="Path 3087" d="M147.494,89.243a48.748,48.748,0,0,1,3.236-17.629A43.2,43.2,0,0,1,160.191,56.8a45.734,45.734,0,0,1,15.428-10.22,54.579,54.579,0,0,1,21.134-3.833q16.365,0,27.356,6.813A44.911,44.911,0,0,1,237.776,62.4a4.059,4.059,0,0,1-2.149,6.19l-23.987,7.255a4.137,4.137,0,0,1-4.23-1.231A14.143,14.143,0,0,0,196.583,70a14.684,14.684,0,0,0-11.252,5.024q-4.6,5.027-4.6,14.222t4.6,14.222a14.674,14.674,0,0,0,11.252,5.024,14.143,14.143,0,0,0,10.826-4.62,4.138,4.138,0,0,1,4.23-1.231l23.987,7.255a4.059,4.059,0,0,1,2.149,6.19,44.838,44.838,0,0,1-13.667,12.846q-11,6.813-27.356,6.813a54.578,54.578,0,0,1-21.134-3.833,45.736,45.736,0,0,1-15.428-10.22,43.231,43.231,0,0,1-9.461-14.818,48.76,48.76,0,0,1-3.236-17.629" transform="translate(-147.494 -42.743)" fill="#1e1f22"/>
</svg>
