<svg width="111" height="40" viewBox="0 0 111 40" fill="none" xmlns="http://www.w3.org/2000/svg">
<path d="M13.3867 30.4183L37.8952 25.7508C36.5305 30.4474 33.5443 34.4619 29.5041 37.0314C25.4639 39.6009 20.6514 40.5462 15.9812 39.6878C11.311 38.8294 7.10868 36.227 4.17282 32.3752C1.23697 28.5235 -0.227735 23.6908 0.0570832 18.7958C0.341902 13.9007 2.35639 9.28443 5.71769 5.82428C9.07899 2.36413 13.5528 0.301292 18.2889 0.0278176C23.0249 -0.245657 27.6931 1.28929 31.4062 4.34094C35.1193 7.3926 37.6185 11.7482 38.4288 16.5801L23.9954 19.5508C23.9367 19.5628 23.876 19.5585 23.8194 19.5384C23.7628 19.5182 23.7124 19.4829 23.6733 19.4361C23.6342 19.3893 23.6078 19.3326 23.5968 19.2718C23.5857 19.211 23.5905 19.1483 23.6105 19.09L26.832 9.74112C26.8728 9.62404 26.8825 9.49781 26.8603 9.37552C26.838 9.25322 26.7844 9.13932 26.7052 9.04563C26.626 8.95194 26.5239 8.88188 26.4097 8.8427C26.2954 8.80353 26.1731 8.79668 26.0554 8.82286L11.7626 11.9999C11.5427 12.0477 11.3379 12.1516 11.1668 12.3022C10.9958 12.4528 10.8639 12.6453 10.7833 12.8622L8.40258 19.2715C8.35902 19.3881 8.34662 19.5146 8.36668 19.6378C8.38674 19.761 8.43853 19.8763 8.51659 19.9717C8.59465 20.067 8.69612 20.1389 8.81032 20.1797C8.92453 20.2206 9.04726 20.2288 9.16563 20.2037L15.909 18.8002C15.9682 18.7871 16.0298 18.7907 16.0872 18.8107C16.1446 18.8307 16.1957 18.8664 16.2351 18.914C16.2745 18.9615 16.3008 19.0192 16.3111 19.0809C16.3215 19.1426 16.3155 19.2061 16.2939 19.2646L15.8612 20.4691L12.6313 29.4899C12.5903 29.6056 12.5795 29.7305 12.6001 29.8519C12.6208 29.9733 12.6721 30.0869 12.7489 30.1812C12.8256 30.2755 12.9252 30.3471 13.0373 30.3888C13.1495 30.4305 13.2704 30.4408 13.3877 30.4186" fill="#50AF64"/>
<path d="M48.7923 20.2176C48.7901 19.5384 48.9097 18.8647 49.1449 18.2305C49.3742 17.6068 49.7251 17.0386 50.1758 16.5609C50.6546 16.0623 51.2271 15.6703 51.858 15.4089C52.5902 15.1086 53.3729 14.9617 54.1606 14.9769C55.2042 14.9384 56.2371 15.2045 57.1411 15.7449C57.7306 16.1139 58.238 16.6073 58.6302 17.1929C58.6698 17.2522 58.6952 17.3203 58.7045 17.3916C58.7138 17.463 58.7067 17.5356 58.6838 17.6036C58.6608 17.6716 58.6227 17.733 58.5725 17.7829C58.5223 17.8328 58.4614 17.8697 58.3947 17.8907L55.7812 18.7084C55.6995 18.7325 55.6129 18.7322 55.5314 18.7076C55.4498 18.683 55.3766 18.635 55.3203 18.5693C55.1715 18.3998 54.9891 18.2654 54.7856 18.1754C54.582 18.0853 54.3621 18.0417 54.1407 18.0475C53.9089 18.0444 53.6792 18.0934 53.4675 18.1912C53.2558 18.289 53.0672 18.4332 52.9147 18.6138C52.5568 19.063 52.3777 19.6362 52.4138 20.2169C52.3777 20.7977 52.5568 21.3709 52.9147 21.82C53.0671 22.0007 53.2557 22.1449 53.4674 22.2427C53.6791 22.3405 53.9089 22.3895 54.1407 22.3863C54.3621 22.3921 54.582 22.3485 54.7856 22.2585C54.9891 22.1684 55.1715 22.0341 55.3203 21.8646C55.3766 21.7988 55.4498 21.7508 55.5314 21.7262C55.6129 21.7016 55.6995 21.7013 55.7812 21.7254L58.3947 22.5432C58.4614 22.5642 58.5223 22.6011 58.5725 22.651C58.6227 22.7008 58.6608 22.7623 58.6838 22.8303C58.7067 22.8982 58.7138 22.9709 58.7045 23.0422C58.6952 23.1136 58.6698 23.1816 58.6302 23.2409C58.2382 23.8267 57.7307 24.3202 57.1411 24.6889C56.2371 25.2293 55.2042 25.4955 54.1606 25.4569C53.3729 25.4721 52.5902 25.3253 51.858 25.0249C51.2271 24.7636 50.6546 24.3715 50.1758 23.8729C49.7252 23.3952 49.3743 22.827 49.1449 22.2034C48.9097 21.5692 48.7901 20.8954 48.7923 20.2162" fill="white"/>
<path d="M66.3439 17.8343C66.3435 17.951 66.2997 18.063 66.2216 18.1472C66.1435 18.2313 66.0371 18.2812 65.9244 18.2865C65.4389 18.3068 64.957 18.3806 64.4867 18.5067C64.0693 18.6056 63.6849 18.8181 63.3734 19.122C63.2899 19.2083 63.2428 19.3254 63.2426 19.4475V24.811C63.2425 24.9316 63.1961 25.0473 63.1136 25.1326C63.0311 25.2179 62.9192 25.2659 62.8025 25.266H60.1544C60.0376 25.266 59.9256 25.218 59.8431 25.1327C59.7605 25.0474 59.714 24.9317 59.7139 24.811V15.6211C59.714 15.5004 59.7605 15.3847 59.8431 15.2994C59.9256 15.2141 60.0376 15.1662 60.1544 15.1662H62.5054C62.6221 15.1662 62.7341 15.2141 62.8166 15.2994C62.8991 15.3847 62.9455 15.5004 62.9455 15.6211V16.4023C62.9456 16.4433 62.9584 16.4832 62.982 16.5162C63.0056 16.5491 63.0388 16.5734 63.0767 16.5855C63.1146 16.5976 63.1553 16.5968 63.1927 16.5833C63.2302 16.5698 63.2625 16.5443 63.285 16.5105C63.5424 16.1247 63.8645 15.7897 64.2361 15.5213C64.7222 15.1656 65.3029 14.9745 65.8985 14.9742H65.9065C66.0225 14.9742 66.1338 15.0218 66.2158 15.1066C66.2978 15.1914 66.3439 15.3064 66.3439 15.4263V17.8343Z" fill="white"/>
<path d="M72.052 25.459C71.2721 25.4727 70.4967 25.3326 69.7676 25.0461C69.1371 24.7973 68.5641 24.4147 68.0853 23.923C67.638 23.4572 67.2873 22.9019 67.0548 22.291C66.8188 21.6737 66.6991 21.0156 66.7019 20.3519C66.6979 19.6453 66.8141 18.9434 67.0454 18.2785C67.2652 17.6408 67.6132 17.0585 68.0665 16.57C68.5405 16.0681 69.1095 15.6727 69.7379 15.4082C71.2258 14.8322 72.8651 14.8322 74.3529 15.4082C74.9839 15.6695 75.5563 16.0616 76.0352 16.5602C76.4851 17.0366 76.8331 17.6054 77.0566 18.2298C77.286 18.8654 77.4024 19.5386 77.4001 20.2169C77.4001 20.4089 77.3909 20.6042 77.3725 20.8027C77.3685 20.8444 77.3644 20.8854 77.3601 20.9254C77.3487 21.037 77.2977 21.1402 77.2169 21.215C77.136 21.2898 77.0312 21.3309 76.9227 21.3303H70.6648C70.6375 21.3305 70.6105 21.3368 70.5858 21.3488C70.5611 21.3608 70.5391 21.3782 70.5216 21.3999C70.504 21.4215 70.4912 21.4468 70.484 21.4741C70.4769 21.5014 70.4756 21.5299 70.4801 21.5578C70.5025 21.7449 70.563 21.9249 70.6578 22.0859C70.7525 22.247 70.8792 22.3854 71.0296 22.492C71.3642 22.7251 71.7589 22.8489 72.1624 22.8472C72.5401 22.8487 72.9126 22.7565 73.2487 22.5783C73.4632 22.4721 73.6484 22.3117 73.787 22.1119C73.8388 22.033 73.9133 21.9731 73.9999 21.9406C74.0866 21.9081 74.1809 21.9048 74.2695 21.931L76.3666 22.5505C76.4335 22.57 76.4951 22.6057 76.5461 22.6546C76.5972 22.7035 76.6363 22.7643 76.6602 22.8318C76.6841 22.8994 76.6921 22.9719 76.6837 23.0433C76.6752 23.1147 76.6505 23.1831 76.6115 23.2427C76.2099 23.8326 75.6902 24.3264 75.0877 24.6903C74.1627 25.229 73.1124 25.4946 72.0513 25.4583L72.052 25.459ZM73.3873 19.1418C73.4156 19.1415 73.4435 19.1347 73.4688 19.1219C73.4942 19.109 73.5165 19.0905 73.534 19.0675C73.5516 19.0446 73.5639 19.0179 73.5701 18.9894C73.5764 18.9609 73.5763 18.9313 73.57 18.9028C73.5017 18.5561 73.3351 18.2382 73.0913 17.9898C72.787 17.7174 72.398 17.5675 71.9955 17.5675C71.593 17.5675 71.204 17.7174 70.8997 17.9898C70.6556 18.2381 70.4889 18.5562 70.4209 18.9032C70.4146 18.9317 70.4146 18.9612 70.4208 18.9897C70.4271 19.0182 70.4394 19.0449 70.4569 19.0678C70.4745 19.0907 70.4967 19.1092 70.5221 19.122C70.5475 19.1348 70.5754 19.1416 70.6036 19.1418H73.3873Z" fill="white"/>
<path d="M82.9252 25.4413C82.2902 25.4486 81.6608 25.3182 81.0774 25.0587C80.5221 24.8088 80.025 24.4389 79.6196 23.9738C79.1992 23.4866 78.8744 22.9195 78.6631 22.3042C78.4284 21.6235 78.3121 20.9052 78.3196 20.1825C78.3137 19.478 78.4203 18.7773 78.6352 18.1088C78.8271 17.5034 79.1263 16.9402 79.5174 16.4479C79.8857 15.9884 80.3444 15.6154 80.8631 15.3536C81.4019 15.0872 81.9929 14.9526 82.5901 14.9602C83.1956 14.9536 83.793 15.1055 84.3265 15.4016C84.6672 15.5898 84.9695 15.8443 85.2167 16.1512C85.2417 16.1807 85.2748 16.2016 85.3116 16.2111C85.3484 16.2206 85.3871 16.2182 85.4226 16.2043C85.458 16.1905 85.4885 16.1657 85.51 16.1334C85.5315 16.1011 85.5429 16.0628 85.5427 16.0235V11.6889C85.5427 11.5683 85.5891 11.4525 85.6716 11.3671C85.7541 11.2817 85.8661 11.2337 85.9828 11.2336H88.6333C88.75 11.2337 88.862 11.2817 88.9445 11.3671C89.027 11.4525 89.0734 11.5683 89.0734 11.6889V21.2173C89.0474 21.4727 89.1136 21.7291 89.2591 21.9373C89.352 22.0289 89.4672 22.0926 89.5925 22.1216C89.6878 22.1465 89.7724 22.2032 89.8333 22.283C89.8941 22.3627 89.9278 22.4611 89.9289 22.5627V24.8625C89.929 24.971 89.8915 25.076 89.8233 25.1585C89.7551 25.2409 89.6606 25.2955 89.5568 25.3122C89.3473 25.3456 89.1557 25.3726 88.9819 25.3933C88.7414 25.423 88.4996 25.4391 88.2575 25.4413C87.0564 25.4413 86.3631 24.974 86.1776 24.0395L86.1032 23.6747C85.7996 24.2591 85.3252 24.7294 84.7477 25.0187C84.1798 25.2998 83.5576 25.4443 82.9279 25.4413H82.9252ZM83.8935 22.3693C84.2092 22.3596 84.518 22.2715 84.7938 22.1123C85.0696 21.9532 85.3042 21.7276 85.4778 21.4548C85.5351 21.3761 85.5657 21.28 85.5649 21.1814V19.6232C85.5652 19.56 85.5529 19.4973 85.5289 19.4392C85.3705 19.0502 85.1211 18.7079 84.8032 18.443C84.5075 18.1826 84.1335 18.0367 83.7451 18.0302C83.4967 18.0276 83.2514 18.0873 83.0302 18.2041C82.8126 18.3198 82.6224 18.4837 82.473 18.6841C82.3135 18.8987 82.1885 19.1385 82.1029 19.3943C82.0087 19.6719 81.9615 19.9642 81.9636 20.2583C81.9368 20.8225 82.127 21.3748 82.4929 21.7943C82.674 21.9871 82.8926 22.1381 83.1342 22.2374C83.3759 22.3366 83.6351 22.382 83.8948 22.3703" fill="white"/>
<path d="M91.0765 22.9894L95.1704 17.9808C95.1934 17.9527 95.2081 17.9184 95.2129 17.8819C95.2176 17.8455 95.2122 17.8084 95.1972 17.775C95.1822 17.7416 95.1582 17.7134 95.1282 17.6937C95.0982 17.6739 95.0633 17.6635 95.0277 17.6635H91.6912C91.5745 17.6634 91.4626 17.6154 91.38 17.5301C91.2975 17.4447 91.2512 17.3289 91.2512 17.2082V15.6221C91.2512 15.5015 91.2976 15.3858 91.3801 15.3005C91.4627 15.2152 91.5745 15.1673 91.6912 15.1672H98.6667C98.7834 15.1672 98.8954 15.2151 98.9779 15.3004C99.0604 15.3858 99.1068 15.5015 99.1068 15.6221V17.1526C99.1067 17.2597 99.0702 17.3634 99.0035 17.4454L94.9265 22.4541C94.9036 22.4822 94.8889 22.5165 94.8842 22.5529C94.8796 22.5893 94.885 22.6263 94.9 22.6596C94.915 22.6929 94.9389 22.7211 94.9688 22.7408C94.9988 22.7606 95.0336 22.771 95.0691 22.771H98.8339C98.8917 22.771 98.9489 22.7828 99.0023 22.8056C99.0557 22.8285 99.1042 22.862 99.1451 22.9043C99.186 22.9465 99.2184 22.9967 99.2405 23.0519C99.2626 23.1071 99.274 23.1662 99.274 23.226V24.812C99.274 24.9327 99.2276 25.0484 99.1451 25.1337C99.0626 25.2191 98.9506 25.267 98.8339 25.267H91.4127C91.296 25.2669 91.1841 25.2189 91.1016 25.1336C91.0191 25.0483 90.9727 24.9327 90.9726 24.812V23.2816C90.9724 23.1741 91.0092 23.07 91.0765 22.988" fill="white"/>
<path d="M100.769 26.93C100.769 26.8598 100.785 26.7906 100.815 26.7278C100.846 26.665 100.89 26.6104 100.944 26.568C100.998 26.5257 101.061 26.4969 101.128 26.4839C101.195 26.4708 101.263 26.4738 101.329 26.4927C101.618 26.579 101.916 26.6258 102.217 26.6319C102.942 26.6319 103.353 26.2197 103.451 25.3954C103.459 25.3248 103.45 25.2533 103.426 25.1867L100.129 15.7988C100.105 15.7301 100.097 15.6564 100.107 15.5839C100.116 15.5114 100.142 15.4423 100.183 15.3824C100.223 15.3225 100.277 15.2736 100.34 15.2399C100.403 15.2061 100.472 15.1885 100.543 15.1884H103.201C103.297 15.1884 103.391 15.2211 103.468 15.2816C103.544 15.342 103.6 15.4269 103.625 15.523L105.195 21.4458C105.206 21.4872 105.23 21.5236 105.264 21.5491C105.297 21.5747 105.338 21.588 105.379 21.5869C105.421 21.5858 105.461 21.5704 105.493 21.5432C105.525 21.5159 105.548 21.4783 105.557 21.4364L106.821 15.5449C106.843 15.4438 106.898 15.3534 106.976 15.2886C107.054 15.2237 107.151 15.1884 107.251 15.1884H109.592C109.661 15.1884 109.729 15.205 109.79 15.237C109.851 15.2689 109.905 15.3152 109.945 15.3722C109.986 15.4293 110.014 15.4954 110.026 15.5654C110.037 15.6354 110.033 15.7072 110.013 15.7752L106.879 26.4966C106.738 26.9799 106.525 27.4373 106.247 27.8524C105.979 28.2509 105.649 28.6011 105.271 28.8889C104.891 29.1776 104.468 29.4008 104.018 29.5498C103.556 29.7038 103.073 29.7815 102.588 29.78C102.075 29.7812 101.565 29.6974 101.077 29.532C100.988 29.5024 100.91 29.4443 100.854 29.3661C100.799 29.2879 100.769 29.1935 100.768 29.0966L100.769 26.93Z" fill="white"/>
<g opacity="0.26">
<path d="M16.2346 19.3136L15.804 20.5136L9.00447 20.2667L9.01793 20.2632C9.05638 20.262 9.09465 20.2573 9.13232 20.2493L15.8511 18.851C15.91 18.8383 15.9712 18.8423 16.0282 18.8623C16.0851 18.8824 16.1359 18.9179 16.175 18.9652C16.2142 19.0124 16.2404 19.0697 16.2509 19.131C16.2614 19.1923 16.2558 19.2553 16.2346 19.3136Z" fill="#1A4A22"/>
</g>
<g opacity="0.26">
<path d="M37.7442 25.8799C37.1942 27.7686 36.3731 29.5613 35.3083 31.1981L13.2289 30.5025L37.7442 25.8799Z" fill="#1A4A22"/>
</g>
</svg>
