<svg id="Group_4886" data-name="Group 4886" xmlns="http://www.w3.org/2000/svg" xmlns:xlink="http://www.w3.org/1999/xlink" width="34" height="29.77" viewBox="0 0 29 30">
  <defs>
    <clipPath id="clip-path">
      <rect id="Rectangle_3698" data-name="Rectangle 3698" width="5.6" height="1.248" fill="none"/>
    </clipPath>
    <clipPath id="clip-path-2">
      <rect id="Rectangle_3699" data-name="Rectangle 3699" width="18.932" height="3.973" fill="none"/>
    </clipPath>
  </defs>
  <g id="Group_4885" data-name="Group 4885">
    <g id="Group_4878" data-name="Group 4878">
      <g id="Group_4887" data-name="Group 4887">
        <path id="Path_3069" data-name="Path 3069" d="M10.289,22.641l18.858-3.474a14.885,14.885,0,1,1,.411-6.826l-11.1,2.211a.261.261,0,0,1-.3-.343l2.479-6.958a.519.519,0,0,0-.6-.683l-11,2.364a1.037,1.037,0,0,0-.753.642l-1.832,4.77a.518.518,0,0,0,.587.694l5.189-1.044a.26.26,0,0,1,.3.346l-.333.9L9.707,21.95a.52.52,0,0,0,.582.691" fill="#50af64"/>
        <path id="Path_3070" data-name="Path 3070" d="M147.494,46.658a4.107,4.107,0,0,1,.272-1.484,3.637,3.637,0,0,1,.8-1.248,3.848,3.848,0,0,1,1.3-.861,4.59,4.59,0,0,1,1.778-.323,4.292,4.292,0,0,1,2.3.574,3.78,3.78,0,0,1,1.15,1.082.342.342,0,0,1-.181.521l-2.018.611a.348.348,0,0,1-.356-.1,1.19,1.19,0,0,0-.911-.389,1.235,1.235,0,0,0-.947.423,2.047,2.047,0,0,0,0,2.4,1.234,1.234,0,0,0,.947.423,1.19,1.19,0,0,0,.911-.389.348.348,0,0,1,.356-.1l2.018.611a.342.342,0,0,1,.181.521A3.774,3.774,0,0,1,153.94,50a4.292,4.292,0,0,1-2.3.574,4.59,4.59,0,0,1-1.778-.323,3.848,3.848,0,0,1-1.3-.861,3.64,3.64,0,0,1-.8-1.248,4.108,4.108,0,0,1-.272-1.484" transform="translate(-112.364 -31.637)" fill="#1e1f22" opacity="0"/>
        <path id="Path_3071" data-name="Path 3071" d="M184.9,44.879a.339.339,0,0,1-.324.339,5.275,5.275,0,0,0-1.11.164,1.857,1.857,0,0,0-.86.46.345.345,0,0,0-.1.243V50.09a.34.34,0,0,1-.34.34h-2.045a.34.34,0,0,1-.34-.34V43.226a.34.34,0,0,1,.34-.34h1.816a.34.34,0,0,1,.34.34v.584a.144.144,0,0,0,.262.081,2.934,2.934,0,0,1,.735-.739,2.225,2.225,0,0,1,1.284-.409h.006a.338.338,0,0,1,.338.338Z" transform="translate(-136.26 -31.637)" fill="#1e1f22" opacity="0"/>
        <path id="Path_3072" data-name="Path 3072" d="M204.5,50.574a4.74,4.74,0,0,1-1.764-.308,3.733,3.733,0,0,1-1.3-.839,3.6,3.6,0,0,1-.8-1.219,3.9,3.9,0,0,1-.273-1.449,4.5,4.5,0,0,1,.265-1.549,3.579,3.579,0,0,1,.789-1.276,3.814,3.814,0,0,1,1.291-.868,5.082,5.082,0,0,1,3.564,0,3.847,3.847,0,0,1,1.3.861,3.548,3.548,0,0,1,.789,1.248,4.2,4.2,0,0,1,.265,1.484q0,.215-.021.438c0,.031-.006.062-.01.092a.339.339,0,0,1-.338.3h-4.832a.145.145,0,0,0-.143.17.994.994,0,0,0,.424.7,1.554,1.554,0,0,0,.875.265,1.823,1.823,0,0,0,.839-.2,1.093,1.093,0,0,0,.415-.348.339.339,0,0,1,.373-.135l1.619.463a.34.34,0,0,1,.189.517A3.756,3.756,0,0,1,206.841,50a4.476,4.476,0,0,1-2.345.574m1.032-4.718a.146.146,0,0,0,.141-.178,1.33,1.33,0,0,0-.37-.682,1.293,1.293,0,0,0-1.692,0,1.326,1.326,0,0,0-.37.682.146.146,0,0,0,.141.178Z" transform="translate(-151.499 -31.637)" fill="#1e1f22" opacity="0"/>
        <path id="Path_3073" data-name="Path 3073" d="M238.2,42.647a3.511,3.511,0,0,1-1.427-.287,3.273,3.273,0,0,1-1.126-.81,3.765,3.765,0,0,1-.739-1.248,4.573,4.573,0,0,1-.265-1.585,4.781,4.781,0,0,1,.244-1.549,3.839,3.839,0,0,1,.681-1.241,3.137,3.137,0,0,1,1.04-.817,3,3,0,0,1,1.334-.294,2.773,2.773,0,0,1,1.341.33,2.311,2.311,0,0,1,.687.56.144.144,0,0,0,.252-.1V32.374a.34.34,0,0,1,.34-.34h2.045a.34.34,0,0,1,.34.34v7.118a.779.779,0,0,0,.143.538.546.546,0,0,0,.257.138.344.344,0,0,1,.259.329v1.718a.34.34,0,0,1-.287.336q-.243.037-.444.061a5.081,5.081,0,0,1-.559.036q-1.391,0-1.606-1.047l-.057-.273a2.353,2.353,0,0,1-1.047,1,3.219,3.219,0,0,1-1.405.316m.746-2.295a1.518,1.518,0,0,0,1.223-.683.335.335,0,0,0,.067-.2V38.3a.346.346,0,0,0-.028-.137,1.906,1.906,0,0,0-.56-.744,1.293,1.293,0,0,0-.817-.308,1.189,1.189,0,0,0-.552.129,1.287,1.287,0,0,0-.43.359,1.879,1.879,0,0,0-.287.531,1.905,1.905,0,0,0-.108.645,1.6,1.6,0,0,0,.409,1.147,1.424,1.424,0,0,0,1.083.43" transform="translate(-176.871 -23.711)" fill="#1e1f22" opacity="0"/>
        <path id="Path_3074" data-name="Path 3074" d="M271.928,49.137,275.09,45.4a.144.144,0,0,0-.11-.237H272.4a.34.34,0,0,1-.34-.34V43.635a.34.34,0,0,1,.34-.34h5.387a.34.34,0,0,1,.34.34v1.142a.34.34,0,0,1-.08.219L274.9,48.737a.144.144,0,0,0,.11.237h2.907a.34.34,0,0,1,.34.34V50.5a.34.34,0,0,1-.34.34h-5.731a.34.34,0,0,1-.34-.34V49.357a.339.339,0,0,1,.08-.219" transform="translate(-204.408 -32.046)" fill="#1e1f22" opacity="0"/>
        <path id="Path_3075" data-name="Path 3075" d="M298.42,52.065a.341.341,0,0,1,.432-.327,2.663,2.663,0,0,0,.686.1q.839,0,.953-.924a.341.341,0,0,0-.019-.155l-2.547-7.013a.34.34,0,0,1,.32-.456H300.3a.34.34,0,0,1,.328.25l1.212,4.424a.144.144,0,0,0,.28-.007l.977-4.4a.34.34,0,0,1,.332-.266h1.808a.34.34,0,0,1,.325.438l-2.42,8.009a3.61,3.61,0,0,1-.488,1.011,3.305,3.305,0,0,1-.753.774,3.379,3.379,0,0,1-.968.495,3.564,3.564,0,0,1-1.1.172,3.717,3.717,0,0,1-1.167-.185.344.344,0,0,1-.239-.325Z" transform="translate(-223.695 -32.046)" fill="#1e1f22" opacity="0"/>
        <g id="Group_4873" data-name="Group 4873" transform="translate(6.942 13.988)" opacity="0.26">
          <g id="Group_4872" data-name="Group 4872">
            <g id="Group_4871" data-name="Group 4871" clip-path="url(#clip-path)">
              <path id="Path_3076" data-name="Path 3076" d="M32.3,54.189l-.333.9L26.72,54.9l.01,0a.512.512,0,0,0,.088-.01l5.189-1.044a.26.26,0,0,1,.3.346" transform="translate(-26.72 -53.838)" fill="#1a4a22"/>
            </g>
          </g>
        </g>
        <g id="Group_4876" data-name="Group 4876" transform="translate(10.205 19.198)" opacity="0.26">
          <g id="Group_4875" data-name="Group 4875">
            <g id="Group_4874" data-name="Group 4874" clip-path="url(#clip-path-2)">
              <path id="Path_3077" data-name="Path 3077" d="M58.208,73.891a14.725,14.725,0,0,1-1.881,3.973l-17.051-.521Z" transform="translate(-39.276 -73.891)" fill="#1a4a22"/>
            </g>
          </g>
        </g>
      </g>
    </g>
  </g>
</svg>
