<svg id="Group_4886" data-name="Group 4886" xmlns="http://www.w3.org/2000/svg" xmlns:xlink="http://www.w3.org/1999/xlink" width="110.013" height="40" viewBox="0 0 110.013 40">
  <defs>
    <clipPath id="clip-path">
      <rect id="Rectangle_3698" data-name="Rectangle 3698" width="7.524" height="1.676" fill="none"/>
    </clipPath>
    <clipPath id="clip-path-2">
      <rect id="Rectangle_3699" data-name="Rectangle 3699" width="25.438" height="5.338" fill="none"/>
    </clipPath>
  </defs>
  <g id="Group_4885" data-name="Group 4885">
    <g id="Group_4878" data-name="Group 4878">
      <g id="Group_4887" data-name="Group 4887">
        <path id="Path_3069" data-name="Path 3069" d="M13.824,30.421l25.338-4.667a20,20,0,1,1,.552-9.171L24.793,19.553a.35.35,0,0,1-.4-.461l3.33-9.349a.7.7,0,0,0-.8-.918L12.145,12a1.393,1.393,0,0,0-1.012.862L8.672,19.274a.7.7,0,0,0,.789.932l6.972-1.4a.35.35,0,0,1,.4.464l-.447,1.2-3.341,9.021a.7.7,0,0,0,.782.929" fill="#50af64"/>
        <path id="Path_3070" data-name="Path 3070" d="M147.494,48a5.518,5.518,0,0,1,.366-1.994,4.888,4.888,0,0,1,1.07-1.676,5.17,5.17,0,0,1,1.744-1.156,6.167,6.167,0,0,1,2.389-.434,5.767,5.767,0,0,1,3.093.771,5.079,5.079,0,0,1,1.545,1.453.459.459,0,0,1-.243.7l-2.712.821a.468.468,0,0,1-.478-.139,1.6,1.6,0,0,0-1.224-.523,1.66,1.66,0,0,0-1.272.568,2.75,2.75,0,0,0,0,3.218,1.658,1.658,0,0,0,1.272.568,1.6,1.6,0,0,0,1.224-.523.468.468,0,0,1,.478-.139l2.712.821a.459.459,0,0,1,.243.7,5.071,5.071,0,0,1-1.545,1.453,5.767,5.767,0,0,1-3.093.771,6.167,6.167,0,0,1-2.389-.434,5.17,5.17,0,0,1-1.744-1.156A4.891,4.891,0,0,1,147.86,50,5.52,5.52,0,0,1,147.494,48" transform="translate(-100.293 -27.821)" fill="#1e1f22"/>
        <path id="Path_3071" data-name="Path 3071" d="M186.657,45.613a.456.456,0,0,1-.435.455,7.089,7.089,0,0,0-1.492.221,2.5,2.5,0,0,0-1.155.618.463.463,0,0,0-.136.327v5.382a.457.457,0,0,1-.457.457h-2.748a.457.457,0,0,1-.457-.457V43.392a.457.457,0,0,1,.457-.457h2.439a.457.457,0,0,1,.457.457v.784a.193.193,0,0,0,.352.109,3.941,3.941,0,0,1,.987-.993,2.989,2.989,0,0,1,1.725-.549h.008a.454.454,0,0,1,.454.454Z" transform="translate(-121.306 -27.821)" fill="#1e1f22"/>
        <path id="Path_3072" data-name="Path 3072" d="M205.916,53.264a6.369,6.369,0,0,1-2.37-.414,5.015,5.015,0,0,1-1.744-1.127,4.839,4.839,0,0,1-1.069-1.638,5.233,5.233,0,0,1-.366-1.946,6.046,6.046,0,0,1,.356-2.081,4.809,4.809,0,0,1,1.06-1.715,5.124,5.124,0,0,1,1.734-1.166,6.828,6.828,0,0,1,4.789,0,5.168,5.168,0,0,1,1.744,1.156,4.767,4.767,0,0,1,1.06,1.676A5.649,5.649,0,0,1,211.465,48q0,.289-.029.588c0,.042-.008.083-.013.123a.455.455,0,0,1-.454.406h-6.492a.2.2,0,0,0-.192.228,1.336,1.336,0,0,0,.57.938,2.088,2.088,0,0,0,1.175.356,2.449,2.449,0,0,0,1.127-.27,1.468,1.468,0,0,0,.558-.468.455.455,0,0,1,.5-.182l2.176.622a.456.456,0,0,1,.254.695,5.046,5.046,0,0,1-1.581,1.453,6.014,6.014,0,0,1-3.151.771m1.386-6.34a.2.2,0,0,0,.19-.24,1.788,1.788,0,0,0-.5-.916,1.737,1.737,0,0,0-2.274,0,1.782,1.782,0,0,0-.5.917.2.2,0,0,0,.19.239Z" transform="translate(-134.707 -27.821)" fill="#1e1f22"/>
        <path id="Path_3073" data-name="Path 3073" d="M239.424,46.294a4.717,4.717,0,0,1-1.917-.385,4.4,4.4,0,0,1-1.513-1.089A5.059,5.059,0,0,1,235,43.143a6.145,6.145,0,0,1-.356-2.129,6.424,6.424,0,0,1,.327-2.081,5.158,5.158,0,0,1,.915-1.667,4.215,4.215,0,0,1,1.4-1.1,4.036,4.036,0,0,1,1.792-.395,3.726,3.726,0,0,1,1.8.443,3.105,3.105,0,0,1,.924.752.193.193,0,0,0,.338-.128V32.491a.457.457,0,0,1,.457-.457h2.748a.457.457,0,0,1,.457.457v9.563a1.047,1.047,0,0,0,.193.723.734.734,0,0,0,.346.185.462.462,0,0,1,.348.443v2.308a.457.457,0,0,1-.386.451q-.326.05-.6.081a6.827,6.827,0,0,1-.752.048q-1.869,0-2.158-1.407l-.077-.366a3.161,3.161,0,0,1-1.407,1.349,4.325,4.325,0,0,1-1.888.424m1-3.083a2.04,2.04,0,0,0,1.644-.918.45.45,0,0,0,.09-.274V40.454a.466.466,0,0,0-.037-.185,2.561,2.561,0,0,0-.753-1,1.737,1.737,0,0,0-1.1-.414,1.6,1.6,0,0,0-.742.174,1.729,1.729,0,0,0-.578.482,2.525,2.525,0,0,0-.385.713,2.56,2.56,0,0,0-.145.867,2.145,2.145,0,0,0,.549,1.542,1.913,1.913,0,0,0,1.455.578" transform="translate(-157.019 -20.851)" fill="#1e1f22"/>
        <path id="Path_3074" data-name="Path 3074" d="M271.956,51.145l4.248-5.026a.194.194,0,0,0-.148-.318h-3.462a.457.457,0,0,1-.457-.457V43.752a.457.457,0,0,1,.457-.457h7.238a.457.457,0,0,1,.457.457v1.535a.458.458,0,0,1-.107.294l-4.231,5.027a.193.193,0,0,0,.148.318H280a.457.457,0,0,1,.457.457v1.592a.457.457,0,0,1-.457.457h-7.7a.457.457,0,0,1-.457-.457V51.44a.455.455,0,0,1,.108-.295" transform="translate(-181.235 -28.181)" fill="#1e1f22"/>
        <path id="Path_3075" data-name="Path 3075" d="M298.6,55.078a.458.458,0,0,1,.581-.439,3.578,3.578,0,0,0,.922.14q1.127,0,1.28-1.241a.458.458,0,0,0-.026-.209l-3.422-9.422a.457.457,0,0,1,.429-.613h2.758a.456.456,0,0,1,.44.336l1.629,5.944a.194.194,0,0,0,.376-.009l1.312-5.913a.457.457,0,0,1,.446-.358h2.429a.457.457,0,0,1,.437.589l-3.252,10.761A4.852,4.852,0,0,1,304.282,56a4.441,4.441,0,0,1-1.012,1.04,4.54,4.54,0,0,1-1.3.665,4.789,4.789,0,0,1-1.484.231,5,5,0,0,1-1.568-.249.462.462,0,0,1-.32-.437Z" transform="translate(-198.196 -28.181)" fill="#1e1f22"/>
        <g id="Group_4873" data-name="Group 4873" transform="translate(9.328 18.795)" opacity="0.26">
          <g id="Group_4872" data-name="Group 4872">
            <g id="Group_4871" data-name="Group 4871" clip-path="url(#clip-path)">
              <path id="Path_3076" data-name="Path 3076" d="M34.222,54.31l-.447,1.2-7.055-.248.014,0a.688.688,0,0,0,.119-.014l6.972-1.4a.35.35,0,0,1,.4.464" transform="translate(-26.72 -53.838)" fill="#1a4a22"/>
            </g>
          </g>
        </g>
        <g id="Group_4876" data-name="Group 4876" transform="translate(13.711 25.795)" opacity="0.26">
          <g id="Group_4875" data-name="Group 4875">
            <g id="Group_4874" data-name="Group 4874" clip-path="url(#clip-path-2)">
              <path id="Path_3077" data-name="Path 3077" d="M64.714,73.891a19.784,19.784,0,0,1-2.527,5.338l-22.91-.7Z" transform="translate(-39.276 -73.891)" fill="#1a4a22"/>
            </g>
          </g>
        </g>
      </g>
    </g>
  </g>
</svg>
