<svg id="Group_7355" data-name="Group 7355" xmlns="http://www.w3.org/2000/svg" xmlns:xlink="http://www.w3.org/1999/xlink" width="145.292" height="52.827" viewBox="0 0 145.292 52.827">
  <defs>
    <clipPath id="clip-path">
      <rect id="Rectangle_3698" data-name="Rectangle 3698" width="9.937" height="2.214" fill="none"/>
    </clipPath>
    <clipPath id="clip-path-2">
      <rect id="Rectangle_3699" data-name="Rectangle 3699" width="33.595" height="7.049" fill="none"/>
    </clipPath>
  </defs>
  <g id="Group_4885" data-name="Group 4885">
    <g id="Group_4878" data-name="Group 4878">
      <g id="Group_4887" data-name="Group 4887">
        <path id="Path_3069" data-name="Path 3069" d="M18.258,40.176,51.72,34.012A26.412,26.412,0,1,1,52.449,21.9L32.744,25.823a.462.462,0,0,1-.526-.609l4.4-12.347a.921.921,0,0,0-1.06-1.213l-19.516,4.2A1.839,1.839,0,0,0,14.7,16.99l-3.25,8.465a.919.919,0,0,0,1.042,1.231L21.7,24.832a.462.462,0,0,1,.526.613l-.59,1.591L17.225,38.949a.923.923,0,0,0,1.033,1.226" fill="#50af64"/>
        <path id="Path_3070" data-name="Path 3070" d="M147.494,49.691a7.288,7.288,0,0,1,.483-2.634,6.455,6.455,0,0,1,1.413-2.214,6.828,6.828,0,0,1,2.3-1.527,8.144,8.144,0,0,1,3.155-.573,7.617,7.617,0,0,1,4.084,1.018,6.708,6.708,0,0,1,2.041,1.919.607.607,0,0,1-.321.925l-3.581,1.084a.618.618,0,0,1-.632-.184,2.111,2.111,0,0,0-1.616-.69,2.192,2.192,0,0,0-1.68.751,3.632,3.632,0,0,0,0,4.25,2.19,2.19,0,0,0,1.68.751,2.111,2.111,0,0,0,1.616-.69.618.618,0,0,1,.632-.184l3.581,1.084a.607.607,0,0,1,.321.925,6.7,6.7,0,0,1-2.041,1.919,7.617,7.617,0,0,1-4.084,1.018,8.144,8.144,0,0,1-3.155-.573,6.828,6.828,0,0,1-2.3-1.527,6.459,6.459,0,0,1-1.413-2.214,7.29,7.29,0,0,1-.483-2.634" transform="translate(-85.157 -23.036)" fill="#fff"/>
        <path id="Path_3071" data-name="Path 3071" d="M188.863,46.533a.6.6,0,0,1-.575.6,9.362,9.362,0,0,0-1.97.292,3.3,3.3,0,0,0-1.526.816.612.612,0,0,0-.179.432v7.108a.6.6,0,0,1-.6.6h-3.629a.6.6,0,0,1-.6-.6V43.6a.6.6,0,0,1,.6-.6H183.6a.6.6,0,0,1,.6.6v1.036a.255.255,0,0,0,.465.143,5.205,5.205,0,0,1,1.3-1.311,3.948,3.948,0,0,1,2.278-.725h.011a.6.6,0,0,1,.6.6Z" transform="translate(-102.556 -23.036)" fill="#fff"/>
        <path id="Path_3072" data-name="Path 3072" d="M207.7,56.638a8.412,8.412,0,0,1-3.131-.547,6.623,6.623,0,0,1-2.3-1.489,6.391,6.391,0,0,1-1.412-2.163,6.911,6.911,0,0,1-.484-2.57,7.984,7.984,0,0,1,.471-2.748,6.351,6.351,0,0,1,1.4-2.265,6.767,6.767,0,0,1,2.29-1.54,9.017,9.017,0,0,1,6.324,0,6.826,6.826,0,0,1,2.3,1.527,6.3,6.3,0,0,1,1.4,2.214,7.461,7.461,0,0,1,.471,2.634q0,.382-.038.776c-.006.055-.011.11-.017.163a.6.6,0,0,1-.6.537H205.8a.258.258,0,0,0-.253.3,1.764,1.764,0,0,0,.753,1.238,2.758,2.758,0,0,0,1.552.471,3.234,3.234,0,0,0,1.489-.356,1.939,1.939,0,0,0,.737-.618.6.6,0,0,1,.661-.24l2.874.821a.6.6,0,0,1,.336.917,6.664,6.664,0,0,1-2.088,1.919,7.942,7.942,0,0,1-4.161,1.018m1.831-8.373a.259.259,0,0,0,.25-.317,2.361,2.361,0,0,0-.656-1.21,2.294,2.294,0,0,0-3,0,2.354,2.354,0,0,0-.656,1.211.259.259,0,0,0,.25.316Z" transform="translate(-113.652 -23.036)" fill="#fff"/>
        <path id="Path_3073" data-name="Path 3073" d="M240.956,50.866a6.23,6.23,0,0,1-2.532-.509,5.809,5.809,0,0,1-2-1.438,6.681,6.681,0,0,1-1.311-2.214,8.115,8.115,0,0,1-.471-2.812,8.484,8.484,0,0,1,.432-2.749,6.812,6.812,0,0,1,1.209-2.2,5.566,5.566,0,0,1,1.845-1.45,5.331,5.331,0,0,1,2.367-.521,4.92,4.92,0,0,1,2.379.585,4.1,4.1,0,0,1,1.22.994.255.255,0,0,0,.447-.169V32.638a.6.6,0,0,1,.6-.6h3.629a.6.6,0,0,1,.6.6v12.63a1.383,1.383,0,0,0,.254.954.969.969,0,0,0,.457.244.611.611,0,0,1,.459.585V50.1a.6.6,0,0,1-.51.6q-.431.066-.788.107a9.016,9.016,0,0,1-.993.064q-2.469,0-2.85-1.858l-.1-.484a4.175,4.175,0,0,1-1.858,1.781,5.712,5.712,0,0,1-2.494.56m1.323-4.072a2.694,2.694,0,0,0,2.171-1.212.6.6,0,0,0,.119-.362V43.154a.615.615,0,0,0-.049-.244,3.382,3.382,0,0,0-.994-1.32,2.294,2.294,0,0,0-1.45-.547,2.11,2.11,0,0,0-.98.229,2.284,2.284,0,0,0-.763.636,3.334,3.334,0,0,0-.509.941,3.381,3.381,0,0,0-.191,1.145,2.833,2.833,0,0,0,.725,2.036,2.526,2.526,0,0,0,1.921.763" transform="translate(-132.127 -17.265)" fill="#fff"/>
        <path id="Path_3074" data-name="Path 3074" d="M271.99,53.662l5.61-6.638a.256.256,0,0,0-.2-.42h-4.572a.6.6,0,0,1-.6-.6V43.9a.6.6,0,0,1,.6-.6h9.559a.6.6,0,0,1,.6.6v2.027a.6.6,0,0,1-.142.388l-5.587,6.639a.256.256,0,0,0,.2.42h5.159a.6.6,0,0,1,.6.6v2.1a.6.6,0,0,1-.6.6H272.451a.6.6,0,0,1-.6-.6V54.051a.6.6,0,0,1,.142-.389" transform="translate(-152.177 -23.334)" fill="#fff"/>
        <path id="Path_3075" data-name="Path 3075" d="M298.819,58.857a.6.6,0,0,1,.767-.58,4.726,4.726,0,0,0,1.218.185q1.489,0,1.691-1.639a.6.6,0,0,0-.034-.276L297.942,44.1a.6.6,0,0,1,.567-.809h3.642a.6.6,0,0,1,.581.444l2.151,7.851a.256.256,0,0,0,.5-.012l1.733-7.809a.6.6,0,0,1,.589-.473h3.208a.6.6,0,0,1,.577.778l-4.295,14.211a6.408,6.408,0,0,1-.865,1.794,5.865,5.865,0,0,1-1.336,1.374,6,6,0,0,1-1.717.878,6.324,6.324,0,0,1-1.96.305,6.6,6.6,0,0,1-2.071-.329.61.61,0,0,1-.423-.577Z" transform="translate(-166.221 -23.334)" fill="#fff"/>
        <g id="Group_4873" data-name="Group 4873" transform="translate(12.319 24.822)" opacity="0.26">
          <g id="Group_4872" data-name="Group 4872">
            <g id="Group_4871" data-name="Group 4871" clip-path="url(#clip-path)">
              <path id="Path_3076" data-name="Path 3076" d="M36.628,54.461l-.59,1.591-9.318-.327.018,0A.909.909,0,0,0,26.9,55.7L36.1,53.848a.462.462,0,0,1,.526.613" transform="translate(-26.72 -53.838)" fill="#1a4a22"/>
            </g>
          </g>
        </g>
        <g id="Group_4876" data-name="Group 4876" transform="translate(18.108 34.067)" opacity="0.26">
          <g id="Group_4875" data-name="Group 4875">
            <g id="Group_4874" data-name="Group 4874" clip-path="url(#clip-path-2)">
              <path id="Path_3077" data-name="Path 3077" d="M72.871,73.891a26.128,26.128,0,0,1-3.338,7.049l-30.257-.924Z" transform="translate(-39.276 -73.891)" fill="#1a4a22"/>
            </g>
          </g>
        </g>
      </g>
    </g>
  </g>
</svg>
