<svg xmlns="http://www.w3.org/2000/svg" width="174" height="174" viewBox="0 0 174 174">
  <g id="Group_5169" data-name="Group 5169" transform="translate(-8389 -7168)">
    <circle id="Ellipse_285" data-name="Ellipse 285" cx="87" cy="87" r="87" transform="translate(8389 7168)" fill="#fff"/>
    <g id="Group_5171" data-name="Group 5171">
      <circle id="Ellipse_293" data-name="Ellipse 293" cx="63" cy="63" r="63" transform="translate(8413 7216)" fill="#f8f8fa"/>
      <path id="Path_3115" data-name="Path 3115" d="M127.088-13.627,54.219-29.95a6.136,6.136,0,0,1-4.647-7.328L62.165-93.492a6.136,6.136,0,0,1,7.328-4.646l72.869,16.324a6.135,6.135,0,0,1,4.645,7.328L134.415-18.272a6.133,6.133,0,0,1-7.327,4.646" transform="translate(8367.246 7328.552)" fill="#e1e2e8" fill-rule="evenodd"/>
      <path id="Path_3112" data-name="Path 3112" d="M77.665,84.661,4.8,68.337A6.135,6.135,0,0,1,.15,61.009L12.742,4.8A6.137,6.137,0,0,1,20.071.15L92.939,16.473A6.135,6.135,0,0,1,97.585,23.8L84.993,80.015A6.136,6.136,0,0,1,77.665,84.661Z" transform="translate(8411.819 7222.817)" fill="#fff" stroke="#1e1f22" stroke-linecap="round" stroke-width="3"/>
      <path id="Path_877" data-name="Path 877" d="M1.8,9.18l24.34,5.453A2.308,2.308,0,0,0,28.9,12.886l1.036-4.622a2.308,2.308,0,0,0-1.747-2.756L3.846.056A2.306,2.306,0,0,0,1.092,1.8L.056,6.425A2.307,2.307,0,0,0,1.8,9.18Z" transform="translate(8424.047 7272.645)" fill="#e1e2e8" stroke="#e1e2e8" stroke-linecap="round" stroke-width="2"/>
      <path id="Path_882" data-name="Path 882" d="M1.8,9.18l24.34,5.453A2.306,2.306,0,0,0,28.9,12.886l1.036-4.622a2.306,2.306,0,0,0-1.746-2.755L3.846.056A2.307,2.307,0,0,0,1.092,1.8L.056,6.425A2.307,2.307,0,0,0,1.8,9.18Z" transform="translate(8458.401 7280.34)" fill="#527afa" stroke="#527afa" stroke-linecap="round" stroke-width="2"/>
      <path id="Path_887" data-name="Path 887" d="M3.616.044,62.758,13.293a2.248,2.248,0,0,1,1.506,2.782l-1,4.466a2.25,2.25,0,0,1-2.55,1.875L1.573,9.168A2.249,2.249,0,0,1,.067,6.384l1-4.466A2.248,2.248,0,0,1,3.616.044Z" transform="translate(8427.232 7258.415)" fill="none" stroke="#e30e2c" stroke-linecap="round" stroke-width="2"/>
      <path id="Path_888" data-name="Path 888" d="M3.616.044,28.4,5.6A2.25,2.25,0,0,1,29.909,8.38l-1,4.465A2.248,2.248,0,0,1,26.36,14.72L1.573,9.168A2.248,2.248,0,0,1,.067,6.385l1-4.466A2.248,2.248,0,0,1,3.616.044Z" transform="translate(8430.412 7244.223)" fill="none" stroke="#1e1f22" stroke-linecap="round" stroke-width="2"/>
      <path id="Path_889" data-name="Path 889" d="M5.416,1.213,0,0" transform="translate(8435.053 7249.2)" fill="none" stroke="#1e1f22" stroke-linecap="round" stroke-width="3"/>
      <path id="Path_893" data-name="Path 893" d="M28.249,6.328,0,0" transform="translate(8434.7 7236.517)" fill="none" stroke="#1e1f22" stroke-linecap="round" stroke-width="5"/>
      <path id="Path_3119" data-name="Path 3119" d="M30.76,6.89,0,0" transform="translate(8431.854 7263.475)" fill="none" stroke="#ea3947" stroke-linecap="round" stroke-width="2"/>
    </g>
    <g id="Group_5170" data-name="Group 5170">
      <path id="Path_3113" data-name="Path 3113" d="M125.379-117.61,90.5-57.2a5.765,5.765,0,0,0,4.993,8.648h69.755a5.765,5.765,0,0,0,4.993-8.648l-34.877-60.41a5.766,5.766,0,0,0-9.986,0" transform="translate(8370.417 7323.152)" fill="#e1e2e8" fill-rule="evenodd"/>
      <path id="Path_3114" data-name="Path 3114" d="M35.659,2.882.781,63.292a5.765,5.765,0,0,0,4.993,8.648H75.529a5.765,5.765,0,0,0,4.993-8.648L45.645,2.882A5.766,5.766,0,0,0,35.659,2.882Z" transform="translate(8471.836 7301.307) rotate(-120)" fill="#fff"/>
      <path id="Path_3116" data-name="Path 3116" d="M119.31-118.339l-30.7,53.178A5.765,5.765,0,0,0,93.6-56.512h61.406A5.766,5.766,0,0,0,160-65.161l-30.7-53.178a5.766,5.766,0,0,0-9.986,0" transform="translate(8370.125 7325.04)" fill="#fc4c60" fill-rule="evenodd"/>
      <path id="Path_3117" data-name="Path 3117" d="M123.268-112.251,96.619-66.093a5.765,5.765,0,0,0,4.993,8.648h53.3a5.765,5.765,0,0,0,4.993-8.648l-26.65-46.158a5.766,5.766,0,0,0-9.986,0" transform="translate(8371.354 7325.972)" fill="#e30e2c" fill-rule="evenodd"/>
      <text id="_" data-name="!" transform="translate(8484.68 7252.523)" fill="#fff" font-size="47" font-family="Roboto-Black, Roboto" font-weight="800"><tspan x="0" y="0">!</tspan></text>
      <path id="Path_3118" data-name="Path 3118" d="M35.659,2.882.781,63.292a5.765,5.765,0,0,0,4.993,8.648H75.529a5.765,5.765,0,0,0,4.993-8.648L45.645,2.882A5.766,5.766,0,0,0,35.659,2.882Z" transform="translate(8471.836 7301.307) rotate(-120)" fill="none" stroke="#1e1f22" stroke-linecap="round" stroke-width="3"/>
    </g>
  </g>
</svg>
