<svg xmlns="http://www.w3.org/2000/svg" width="58.11" height="19" viewBox="0 0 58.11 19">
  <g id="Group_5017" data-name="Group 5017" transform="translate(0.11 -165)">
    <path id="Line_414" data-name="Line 414" d="M0,57.61a.5.5,0,0,1-.5-.5V57.1a.5.5,0,0,1,.5-.5.5.5,0,0,1,.5.5v.006A.5.5,0,0,1,0,57.61ZM0,54.6a.5.5,0,0,1-.5-.5V54.1a.5.5,0,0,1,.5-.5.5.5,0,0,1,.5.5V54.1A.5.5,0,0,1,0,54.6ZM0,51.6a.5.5,0,0,1-.5-.5v-.006a.5.5,0,0,1,.5-.5.5.5,0,0,1,.5.5V51.1A.5.5,0,0,1,0,51.6Zm0-3.006a.5.5,0,0,1-.5-.5v-.005a.5.5,0,0,1,.5-.5.5.5,0,0,1,.5.5v.005A.5.5,0,0,1,0,48.593Zm0-3.005a.5.5,0,0,1-.5-.5v-.006a.5.5,0,0,1,.5-.5.5.5,0,0,1,.5.5v.006A.5.5,0,0,1,0,45.588Zm0-3.006a.5.5,0,0,1-.5-.5v-.006a.5.5,0,0,1,.5-.5.5.5,0,0,1,.5.5v.006A.5.5,0,0,1,0,42.583Zm0-3.006a.5.5,0,0,1-.5-.5v-.006a.5.5,0,0,1,.5-.5.5.5,0,0,1,.5.5v.006A.5.5,0,0,1,0,39.577Zm0-3.006a.5.5,0,0,1-.5-.5v-.005a.5.5,0,0,1,.5-.5.5.5,0,0,1,.5.5v.005A.5.5,0,0,1,0,36.571Zm0-3.005a.5.5,0,0,1-.5-.5v-.006a.5.5,0,0,1,.5-.5.5.5,0,0,1,.5.5v.006A.5.5,0,0,1,0,33.566ZM0,30.56a.5.5,0,0,1-.5-.5v-.005a.5.5,0,0,1,.5-.5.5.5,0,0,1,.5.5v.005A.5.5,0,0,1,0,30.56Zm0-3.005a.5.5,0,0,1-.5-.5v-.006a.5.5,0,0,1,.5-.5.5.5,0,0,1,.5.5v.006A.5.5,0,0,1,0,27.555Zm0-3.006a.5.5,0,0,1-.5-.5v-.005a.5.5,0,0,1,.5-.5.5.5,0,0,1,.5.5v.005A.5.5,0,0,1,0,24.549Zm0-3.005a.5.5,0,0,1-.5-.5v-.006a.5.5,0,0,1,.5-.5.5.5,0,0,1,.5.5v.006A.5.5,0,0,1,0,21.544Zm0-3.006a.5.5,0,0,1-.5-.5v-.005a.5.5,0,0,1,.5-.5.5.5,0,0,1,.5.5v.005A.5.5,0,0,1,0,18.538Zm0-3.005a.5.5,0,0,1-.5-.5v-.005a.5.5,0,0,1,.5-.5.5.5,0,0,1,.5.5v.005A.5.5,0,0,1,0,15.533Zm0-3.005a.5.5,0,0,1-.5-.5v-.005a.5.5,0,0,1,.5-.5.5.5,0,0,1,.5.5v.005A.5.5,0,0,1,0,12.528ZM0,9.522a.5.5,0,0,1-.5-.5V9.017a.5.5,0,0,1,.5-.5.5.5,0,0,1,.5.5v.005A.5.5,0,0,1,0,9.522ZM0,6.516a.5.5,0,0,1-.5-.5V6.011a.5.5,0,0,1,.5-.5.5.5,0,0,1,.5.5v.005A.5.5,0,0,1,0,6.516ZM0,3.511a.5.5,0,0,1-.5-.5V3.006a.5.5,0,0,1,.5-.5.5.5,0,0,1,.5.5v.005A.5.5,0,0,1,0,3.511ZM0,.506a.5.5,0,0,1-.5-.5V0A.5.5,0,0,1,0-.5.5.5,0,0,1,.5,0V.005A.5.5,0,0,1,0,.506Z" transform="translate(0.39 165.5) rotate(-90)" fill="#1e1f22"/>
    <path id="Line_414-2" data-name="Line 414" d="M0,57.61a.5.5,0,0,1-.5-.5V57.1a.5.5,0,0,1,.5-.5.5.5,0,0,1,.5.5v.006A.5.5,0,0,1,0,57.61ZM0,54.6a.5.5,0,0,1-.5-.5V54.1a.5.5,0,0,1,.5-.5.5.5,0,0,1,.5.5V54.1A.5.5,0,0,1,0,54.6ZM0,51.6a.5.5,0,0,1-.5-.5v-.006a.5.5,0,0,1,.5-.5.5.5,0,0,1,.5.5V51.1A.5.5,0,0,1,0,51.6Zm0-3.006a.5.5,0,0,1-.5-.5v-.005a.5.5,0,0,1,.5-.5.5.5,0,0,1,.5.5v.005A.5.5,0,0,1,0,48.593Zm0-3.005a.5.5,0,0,1-.5-.5v-.006a.5.5,0,0,1,.5-.5.5.5,0,0,1,.5.5v.006A.5.5,0,0,1,0,45.588Zm0-3.006a.5.5,0,0,1-.5-.5v-.006a.5.5,0,0,1,.5-.5.5.5,0,0,1,.5.5v.006A.5.5,0,0,1,0,42.583Zm0-3.006a.5.5,0,0,1-.5-.5v-.006a.5.5,0,0,1,.5-.5.5.5,0,0,1,.5.5v.006A.5.5,0,0,1,0,39.577Zm0-3.006a.5.5,0,0,1-.5-.5v-.005a.5.5,0,0,1,.5-.5.5.5,0,0,1,.5.5v.005A.5.5,0,0,1,0,36.571Zm0-3.005a.5.5,0,0,1-.5-.5v-.006a.5.5,0,0,1,.5-.5.5.5,0,0,1,.5.5v.006A.5.5,0,0,1,0,33.566ZM0,30.56a.5.5,0,0,1-.5-.5v-.005a.5.5,0,0,1,.5-.5.5.5,0,0,1,.5.5v.005A.5.5,0,0,1,0,30.56Zm0-3.005a.5.5,0,0,1-.5-.5v-.006a.5.5,0,0,1,.5-.5.5.5,0,0,1,.5.5v.006A.5.5,0,0,1,0,27.555Zm0-3.006a.5.5,0,0,1-.5-.5v-.005a.5.5,0,0,1,.5-.5.5.5,0,0,1,.5.5v.005A.5.5,0,0,1,0,24.549Zm0-3.005a.5.5,0,0,1-.5-.5v-.006a.5.5,0,0,1,.5-.5.5.5,0,0,1,.5.5v.006A.5.5,0,0,1,0,21.544Zm0-3.006a.5.5,0,0,1-.5-.5v-.005a.5.5,0,0,1,.5-.5.5.5,0,0,1,.5.5v.005A.5.5,0,0,1,0,18.538Zm0-3.005a.5.5,0,0,1-.5-.5v-.005a.5.5,0,0,1,.5-.5.5.5,0,0,1,.5.5v.005A.5.5,0,0,1,0,15.533Zm0-3.005a.5.5,0,0,1-.5-.5v-.005a.5.5,0,0,1,.5-.5.5.5,0,0,1,.5.5v.005A.5.5,0,0,1,0,12.528ZM0,9.522a.5.5,0,0,1-.5-.5V9.017a.5.5,0,0,1,.5-.5.5.5,0,0,1,.5.5v.005A.5.5,0,0,1,0,9.522ZM0,6.516a.5.5,0,0,1-.5-.5V6.011a.5.5,0,0,1,.5-.5.5.5,0,0,1,.5.5v.005A.5.5,0,0,1,0,6.516ZM0,3.511a.5.5,0,0,1-.5-.5V3.006a.5.5,0,0,1,.5-.5.5.5,0,0,1,.5.5v.005A.5.5,0,0,1,0,3.511ZM0,.506a.5.5,0,0,1-.5-.5V0A.5.5,0,0,1,0-.5.5.5,0,0,1,.5,0V.005A.5.5,0,0,1,0,.506Z" transform="translate(0.39 168.5) rotate(-90)" fill="#1e1f22"/>
    <path id="Line_414-3" data-name="Line 414" d="M0,57.61a.5.5,0,0,1-.5-.5V57.1a.5.5,0,0,1,.5-.5.5.5,0,0,1,.5.5v.006A.5.5,0,0,1,0,57.61ZM0,54.6a.5.5,0,0,1-.5-.5V54.1a.5.5,0,0,1,.5-.5.5.5,0,0,1,.5.5V54.1A.5.5,0,0,1,0,54.6ZM0,51.6a.5.5,0,0,1-.5-.5v-.006a.5.5,0,0,1,.5-.5.5.5,0,0,1,.5.5V51.1A.5.5,0,0,1,0,51.6Zm0-3.006a.5.5,0,0,1-.5-.5v-.005a.5.5,0,0,1,.5-.5.5.5,0,0,1,.5.5v.005A.5.5,0,0,1,0,48.593Zm0-3.005a.5.5,0,0,1-.5-.5v-.006a.5.5,0,0,1,.5-.5.5.5,0,0,1,.5.5v.006A.5.5,0,0,1,0,45.588Zm0-3.006a.5.5,0,0,1-.5-.5v-.006a.5.5,0,0,1,.5-.5.5.5,0,0,1,.5.5v.006A.5.5,0,0,1,0,42.583Zm0-3.006a.5.5,0,0,1-.5-.5v-.006a.5.5,0,0,1,.5-.5.5.5,0,0,1,.5.5v.006A.5.5,0,0,1,0,39.577Zm0-3.006a.5.5,0,0,1-.5-.5v-.005a.5.5,0,0,1,.5-.5.5.5,0,0,1,.5.5v.005A.5.5,0,0,1,0,36.571Zm0-3.005a.5.5,0,0,1-.5-.5v-.006a.5.5,0,0,1,.5-.5.5.5,0,0,1,.5.5v.006A.5.5,0,0,1,0,33.566ZM0,30.56a.5.5,0,0,1-.5-.5v-.005a.5.5,0,0,1,.5-.5.5.5,0,0,1,.5.5v.005A.5.5,0,0,1,0,30.56Zm0-3.005a.5.5,0,0,1-.5-.5v-.006a.5.5,0,0,1,.5-.5.5.5,0,0,1,.5.5v.006A.5.5,0,0,1,0,27.555Zm0-3.006a.5.5,0,0,1-.5-.5v-.005a.5.5,0,0,1,.5-.5.5.5,0,0,1,.5.5v.005A.5.5,0,0,1,0,24.549Zm0-3.005a.5.5,0,0,1-.5-.5v-.006a.5.5,0,0,1,.5-.5.5.5,0,0,1,.5.5v.006A.5.5,0,0,1,0,21.544Zm0-3.006a.5.5,0,0,1-.5-.5v-.005a.5.5,0,0,1,.5-.5.5.5,0,0,1,.5.5v.005A.5.5,0,0,1,0,18.538Zm0-3.005a.5.5,0,0,1-.5-.5v-.005a.5.5,0,0,1,.5-.5.5.5,0,0,1,.5.5v.005A.5.5,0,0,1,0,15.533Zm0-3.005a.5.5,0,0,1-.5-.5v-.005a.5.5,0,0,1,.5-.5.5.5,0,0,1,.5.5v.005A.5.5,0,0,1,0,12.528ZM0,9.522a.5.5,0,0,1-.5-.5V9.017a.5.5,0,0,1,.5-.5.5.5,0,0,1,.5.5v.005A.5.5,0,0,1,0,9.522ZM0,6.516a.5.5,0,0,1-.5-.5V6.011a.5.5,0,0,1,.5-.5.5.5,0,0,1,.5.5v.005A.5.5,0,0,1,0,6.516ZM0,3.511a.5.5,0,0,1-.5-.5V3.006a.5.5,0,0,1,.5-.5.5.5,0,0,1,.5.5v.005A.5.5,0,0,1,0,3.511ZM0,.506a.5.5,0,0,1-.5-.5V0A.5.5,0,0,1,0-.5.5.5,0,0,1,.5,0V.005A.5.5,0,0,1,0,.506Z" transform="translate(0.39 171.5) rotate(-90)" fill="#1e1f22"/>
    <path id="Line_414-4" data-name="Line 414" d="M0,57.61a.5.5,0,0,1-.5-.5V57.1a.5.5,0,0,1,.5-.5.5.5,0,0,1,.5.5v.006A.5.5,0,0,1,0,57.61ZM0,54.6a.5.5,0,0,1-.5-.5V54.1a.5.5,0,0,1,.5-.5.5.5,0,0,1,.5.5V54.1A.5.5,0,0,1,0,54.6ZM0,51.6a.5.5,0,0,1-.5-.5v-.006a.5.5,0,0,1,.5-.5.5.5,0,0,1,.5.5V51.1A.5.5,0,0,1,0,51.6Zm0-3.006a.5.5,0,0,1-.5-.5v-.005a.5.5,0,0,1,.5-.5.5.5,0,0,1,.5.5v.005A.5.5,0,0,1,0,48.593Zm0-3.005a.5.5,0,0,1-.5-.5v-.006a.5.5,0,0,1,.5-.5.5.5,0,0,1,.5.5v.006A.5.5,0,0,1,0,45.588Zm0-3.006a.5.5,0,0,1-.5-.5v-.006a.5.5,0,0,1,.5-.5.5.5,0,0,1,.5.5v.006A.5.5,0,0,1,0,42.583Zm0-3.006a.5.5,0,0,1-.5-.5v-.006a.5.5,0,0,1,.5-.5.5.5,0,0,1,.5.5v.006A.5.5,0,0,1,0,39.577Zm0-3.006a.5.5,0,0,1-.5-.5v-.005a.5.5,0,0,1,.5-.5.5.5,0,0,1,.5.5v.005A.5.5,0,0,1,0,36.571Zm0-3.005a.5.5,0,0,1-.5-.5v-.006a.5.5,0,0,1,.5-.5.5.5,0,0,1,.5.5v.006A.5.5,0,0,1,0,33.566ZM0,30.56a.5.5,0,0,1-.5-.5v-.005a.5.5,0,0,1,.5-.5.5.5,0,0,1,.5.5v.005A.5.5,0,0,1,0,30.56Zm0-3.005a.5.5,0,0,1-.5-.5v-.006a.5.5,0,0,1,.5-.5.5.5,0,0,1,.5.5v.006A.5.5,0,0,1,0,27.555Zm0-3.006a.5.5,0,0,1-.5-.5v-.005a.5.5,0,0,1,.5-.5.5.5,0,0,1,.5.5v.005A.5.5,0,0,1,0,24.549Zm0-3.005a.5.5,0,0,1-.5-.5v-.006a.5.5,0,0,1,.5-.5.5.5,0,0,1,.5.5v.006A.5.5,0,0,1,0,21.544Zm0-3.006a.5.5,0,0,1-.5-.5v-.005a.5.5,0,0,1,.5-.5.5.5,0,0,1,.5.5v.005A.5.5,0,0,1,0,18.538Zm0-3.005a.5.5,0,0,1-.5-.5v-.005a.5.5,0,0,1,.5-.5.5.5,0,0,1,.5.5v.005A.5.5,0,0,1,0,15.533Zm0-3.005a.5.5,0,0,1-.5-.5v-.005a.5.5,0,0,1,.5-.5.5.5,0,0,1,.5.5v.005A.5.5,0,0,1,0,12.528ZM0,9.522a.5.5,0,0,1-.5-.5V9.017a.5.5,0,0,1,.5-.5.5.5,0,0,1,.5.5v.005A.5.5,0,0,1,0,9.522ZM0,6.516a.5.5,0,0,1-.5-.5V6.011a.5.5,0,0,1,.5-.5.5.5,0,0,1,.5.5v.005A.5.5,0,0,1,0,6.516ZM0,3.511a.5.5,0,0,1-.5-.5V3.006a.5.5,0,0,1,.5-.5.5.5,0,0,1,.5.5v.005A.5.5,0,0,1,0,3.511ZM0,.506a.5.5,0,0,1-.5-.5V0A.5.5,0,0,1,0-.5.5.5,0,0,1,.5,0V.005A.5.5,0,0,1,0,.506Z" transform="translate(0.39 174.5) rotate(-90)" fill="#1e1f22"/>
    <path id="Line_414-5" data-name="Line 414" d="M0,57.61a.5.5,0,0,1-.5-.5V57.1a.5.5,0,0,1,.5-.5.5.5,0,0,1,.5.5v.006A.5.5,0,0,1,0,57.61ZM0,54.6a.5.5,0,0,1-.5-.5V54.1a.5.5,0,0,1,.5-.5.5.5,0,0,1,.5.5V54.1A.5.5,0,0,1,0,54.6ZM0,51.6a.5.5,0,0,1-.5-.5v-.006a.5.5,0,0,1,.5-.5.5.5,0,0,1,.5.5V51.1A.5.5,0,0,1,0,51.6Zm0-3.006a.5.5,0,0,1-.5-.5v-.005a.5.5,0,0,1,.5-.5.5.5,0,0,1,.5.5v.005A.5.5,0,0,1,0,48.593Zm0-3.005a.5.5,0,0,1-.5-.5v-.006a.5.5,0,0,1,.5-.5.5.5,0,0,1,.5.5v.006A.5.5,0,0,1,0,45.588Zm0-3.006a.5.5,0,0,1-.5-.5v-.006a.5.5,0,0,1,.5-.5.5.5,0,0,1,.5.5v.006A.5.5,0,0,1,0,42.583Zm0-3.006a.5.5,0,0,1-.5-.5v-.006a.5.5,0,0,1,.5-.5.5.5,0,0,1,.5.5v.006A.5.5,0,0,1,0,39.577Zm0-3.006a.5.5,0,0,1-.5-.5v-.005a.5.5,0,0,1,.5-.5.5.5,0,0,1,.5.5v.005A.5.5,0,0,1,0,36.571Zm0-3.005a.5.5,0,0,1-.5-.5v-.006a.5.5,0,0,1,.5-.5.5.5,0,0,1,.5.5v.006A.5.5,0,0,1,0,33.566ZM0,30.56a.5.5,0,0,1-.5-.5v-.005a.5.5,0,0,1,.5-.5.5.5,0,0,1,.5.5v.005A.5.5,0,0,1,0,30.56Zm0-3.005a.5.5,0,0,1-.5-.5v-.006a.5.5,0,0,1,.5-.5.5.5,0,0,1,.5.5v.006A.5.5,0,0,1,0,27.555Zm0-3.006a.5.5,0,0,1-.5-.5v-.005a.5.5,0,0,1,.5-.5.5.5,0,0,1,.5.5v.005A.5.5,0,0,1,0,24.549Zm0-3.005a.5.5,0,0,1-.5-.5v-.006a.5.5,0,0,1,.5-.5.5.5,0,0,1,.5.5v.006A.5.5,0,0,1,0,21.544Zm0-3.006a.5.5,0,0,1-.5-.5v-.005a.5.5,0,0,1,.5-.5.5.5,0,0,1,.5.5v.005A.5.5,0,0,1,0,18.538Zm0-3.005a.5.5,0,0,1-.5-.5v-.005a.5.5,0,0,1,.5-.5.5.5,0,0,1,.5.5v.005A.5.5,0,0,1,0,15.533Zm0-3.005a.5.5,0,0,1-.5-.5v-.005a.5.5,0,0,1,.5-.5.5.5,0,0,1,.5.5v.005A.5.5,0,0,1,0,12.528ZM0,9.522a.5.5,0,0,1-.5-.5V9.017a.5.5,0,0,1,.5-.5.5.5,0,0,1,.5.5v.005A.5.5,0,0,1,0,9.522ZM0,6.516a.5.5,0,0,1-.5-.5V6.011a.5.5,0,0,1,.5-.5.5.5,0,0,1,.5.5v.005A.5.5,0,0,1,0,6.516ZM0,3.511a.5.5,0,0,1-.5-.5V3.006a.5.5,0,0,1,.5-.5.5.5,0,0,1,.5.5v.005A.5.5,0,0,1,0,3.511ZM0,.506a.5.5,0,0,1-.5-.5V0A.5.5,0,0,1,0-.5.5.5,0,0,1,.5,0V.005A.5.5,0,0,1,0,.506Z" transform="translate(0.39 177.5) rotate(-90)" fill="#1e1f22"/>
    <path id="Line_414-6" data-name="Line 414" d="M0,57.61a.5.5,0,0,1-.5-.5V57.1a.5.5,0,0,1,.5-.5.5.5,0,0,1,.5.5v.006A.5.5,0,0,1,0,57.61ZM0,54.6a.5.5,0,0,1-.5-.5V54.1a.5.5,0,0,1,.5-.5.5.5,0,0,1,.5.5V54.1A.5.5,0,0,1,0,54.6ZM0,51.6a.5.5,0,0,1-.5-.5v-.006a.5.5,0,0,1,.5-.5.5.5,0,0,1,.5.5V51.1A.5.5,0,0,1,0,51.6Zm0-3.006a.5.5,0,0,1-.5-.5v-.005a.5.5,0,0,1,.5-.5.5.5,0,0,1,.5.5v.005A.5.5,0,0,1,0,48.593Zm0-3.005a.5.5,0,0,1-.5-.5v-.006a.5.5,0,0,1,.5-.5.5.5,0,0,1,.5.5v.006A.5.5,0,0,1,0,45.588Zm0-3.006a.5.5,0,0,1-.5-.5v-.006a.5.5,0,0,1,.5-.5.5.5,0,0,1,.5.5v.006A.5.5,0,0,1,0,42.583Zm0-3.006a.5.5,0,0,1-.5-.5v-.006a.5.5,0,0,1,.5-.5.5.5,0,0,1,.5.5v.006A.5.5,0,0,1,0,39.577Zm0-3.006a.5.5,0,0,1-.5-.5v-.005a.5.5,0,0,1,.5-.5.5.5,0,0,1,.5.5v.005A.5.5,0,0,1,0,36.571Zm0-3.005a.5.5,0,0,1-.5-.5v-.006a.5.5,0,0,1,.5-.5.5.5,0,0,1,.5.5v.006A.5.5,0,0,1,0,33.566ZM0,30.56a.5.5,0,0,1-.5-.5v-.005a.5.5,0,0,1,.5-.5.5.5,0,0,1,.5.5v.005A.5.5,0,0,1,0,30.56Zm0-3.005a.5.5,0,0,1-.5-.5v-.006a.5.5,0,0,1,.5-.5.5.5,0,0,1,.5.5v.006A.5.5,0,0,1,0,27.555Zm0-3.006a.5.5,0,0,1-.5-.5v-.005a.5.5,0,0,1,.5-.5.5.5,0,0,1,.5.5v.005A.5.5,0,0,1,0,24.549Zm0-3.005a.5.5,0,0,1-.5-.5v-.006a.5.5,0,0,1,.5-.5.5.5,0,0,1,.5.5v.006A.5.5,0,0,1,0,21.544Zm0-3.006a.5.5,0,0,1-.5-.5v-.005a.5.5,0,0,1,.5-.5.5.5,0,0,1,.5.5v.005A.5.5,0,0,1,0,18.538Zm0-3.005a.5.5,0,0,1-.5-.5v-.005a.5.5,0,0,1,.5-.5.5.5,0,0,1,.5.5v.005A.5.5,0,0,1,0,15.533Zm0-3.005a.5.5,0,0,1-.5-.5v-.005a.5.5,0,0,1,.5-.5.5.5,0,0,1,.5.5v.005A.5.5,0,0,1,0,12.528ZM0,9.522a.5.5,0,0,1-.5-.5V9.017a.5.5,0,0,1,.5-.5.5.5,0,0,1,.5.5v.005A.5.5,0,0,1,0,9.522ZM0,6.516a.5.5,0,0,1-.5-.5V6.011a.5.5,0,0,1,.5-.5.5.5,0,0,1,.5.5v.005A.5.5,0,0,1,0,6.516ZM0,3.511a.5.5,0,0,1-.5-.5V3.006a.5.5,0,0,1,.5-.5.5.5,0,0,1,.5.5v.005A.5.5,0,0,1,0,3.511ZM0,.506a.5.5,0,0,1-.5-.5V0A.5.5,0,0,1,0-.5.5.5,0,0,1,.5,0V.005A.5.5,0,0,1,0,.506Z" transform="translate(0.39 180.5) rotate(-90)" fill="#1e1f22"/>
    <path id="Line_414-7" data-name="Line 414" d="M0,57.61a.5.5,0,0,1-.5-.5V57.1a.5.5,0,0,1,.5-.5.5.5,0,0,1,.5.5v.006A.5.5,0,0,1,0,57.61ZM0,54.6a.5.5,0,0,1-.5-.5V54.1a.5.5,0,0,1,.5-.5.5.5,0,0,1,.5.5V54.1A.5.5,0,0,1,0,54.6ZM0,51.6a.5.5,0,0,1-.5-.5v-.006a.5.5,0,0,1,.5-.5.5.5,0,0,1,.5.5V51.1A.5.5,0,0,1,0,51.6Zm0-3.006a.5.5,0,0,1-.5-.5v-.005a.5.5,0,0,1,.5-.5.5.5,0,0,1,.5.5v.005A.5.5,0,0,1,0,48.593Zm0-3.005a.5.5,0,0,1-.5-.5v-.006a.5.5,0,0,1,.5-.5.5.5,0,0,1,.5.5v.006A.5.5,0,0,1,0,45.588Zm0-3.006a.5.5,0,0,1-.5-.5v-.006a.5.5,0,0,1,.5-.5.5.5,0,0,1,.5.5v.006A.5.5,0,0,1,0,42.583Zm0-3.006a.5.5,0,0,1-.5-.5v-.006a.5.5,0,0,1,.5-.5.5.5,0,0,1,.5.5v.006A.5.5,0,0,1,0,39.577Zm0-3.006a.5.5,0,0,1-.5-.5v-.005a.5.5,0,0,1,.5-.5.5.5,0,0,1,.5.5v.005A.5.5,0,0,1,0,36.571Zm0-3.005a.5.5,0,0,1-.5-.5v-.006a.5.5,0,0,1,.5-.5.5.5,0,0,1,.5.5v.006A.5.5,0,0,1,0,33.566ZM0,30.56a.5.5,0,0,1-.5-.5v-.005a.5.5,0,0,1,.5-.5.5.5,0,0,1,.5.5v.005A.5.5,0,0,1,0,30.56Zm0-3.005a.5.5,0,0,1-.5-.5v-.006a.5.5,0,0,1,.5-.5.5.5,0,0,1,.5.5v.006A.5.5,0,0,1,0,27.555Zm0-3.006a.5.5,0,0,1-.5-.5v-.005a.5.5,0,0,1,.5-.5.5.5,0,0,1,.5.5v.005A.5.5,0,0,1,0,24.549Zm0-3.005a.5.5,0,0,1-.5-.5v-.006a.5.5,0,0,1,.5-.5.5.5,0,0,1,.5.5v.006A.5.5,0,0,1,0,21.544Zm0-3.006a.5.5,0,0,1-.5-.5v-.005a.5.5,0,0,1,.5-.5.5.5,0,0,1,.5.5v.005A.5.5,0,0,1,0,18.538Zm0-3.005a.5.5,0,0,1-.5-.5v-.005a.5.5,0,0,1,.5-.5.5.5,0,0,1,.5.5v.005A.5.5,0,0,1,0,15.533Zm0-3.005a.5.5,0,0,1-.5-.5v-.005a.5.5,0,0,1,.5-.5.5.5,0,0,1,.5.5v.005A.5.5,0,0,1,0,12.528ZM0,9.522a.5.5,0,0,1-.5-.5V9.017a.5.5,0,0,1,.5-.5.5.5,0,0,1,.5.5v.005A.5.5,0,0,1,0,9.522ZM0,6.516a.5.5,0,0,1-.5-.5V6.011a.5.5,0,0,1,.5-.5.5.5,0,0,1,.5.5v.005A.5.5,0,0,1,0,6.516ZM0,3.511a.5.5,0,0,1-.5-.5V3.006a.5.5,0,0,1,.5-.5.5.5,0,0,1,.5.5v.005A.5.5,0,0,1,0,3.511ZM0,.506a.5.5,0,0,1-.5-.5V0A.5.5,0,0,1,0-.5.5.5,0,0,1,.5,0V.005A.5.5,0,0,1,0,.506Z" transform="translate(0.39 183.5) rotate(-90)" fill="#1e1f22"/>
  </g>
</svg>
